<svg id="Layer_1" data-name="Layer 1" xmlns="http://www.w3.org/2000/svg" viewBox="0 0 1650 600"><defs><style>.cls-1{font-size:140px;fill:#d9e021;font-family:SimplonNorm-Bold, Simplon Norm;font-weight:700;letter-spacing:-0.03em;}.cls-2{letter-spacing:-0.03em;}.cls-3{letter-spacing:-0.04em;}.cls-4{letter-spacing:-0.04em;}.cls-5{letter-spacing:-0.04em;}.cls-6{letter-spacing:-0.02em;}.cls-7{letter-spacing:-0.02em;}.cls-8{letter-spacing:-0.04em;}.cls-9{letter-spacing:-0.04em;}.cls-10{fill:#1b1b1b;}</style></defs><title>TrackingExposed</title><text class="cls-1" transform="translate(499.94 287.56)">P<tspan class="cls-2" x="80.71" y="0">r</tspan><tspan class="cls-3" x="127.82" y="0">o</tspan><tspan class="cls-4" x="198.48" y="0">j</tspan><tspan class="cls-5" x="228.16" y="0">e</tspan><tspan class="cls-6" x="299.42" y="0">c</tspan><tspan class="cls-7" x="371.81" y="0">t </tspan><tspan class="cls-4" x="447.13" y="0">n</tspan><tspan class="cls-8" x="521.75" y="0">a</tspan><tspan class="cls-9" x="594.76" y="0">m</tspan><tspan class="cls-7" x="714.03" y="0">e</tspan></text><path class="cls-10" d="M550.14,328.51v79.38H530.82V328.51h-27.3V309.89h73.92v18.62Z"/><path class="cls-10" d="M586.9,407.89H568.42V335.65H586.9v7.84c2.1-4.9,8.26-9.1,16.8-9.1h5.6v18.06h-8.68c-7,0-13.72,4.34-13.72,14Z"/><path class="cls-10" d="M657.59,360.85c-1.26-6.58-5.74-10.5-13.44-10.5-6.58,0-10.92,3.08-12.74,8H612.79c2.94-15.12,13.44-24.64,31.36-24.64,20.72,0,32.2,13.16,32.2,33.18v41H657.87v-8.26c-3.36,5.46-9,9.66-20.16,9.66-16.8,0-26.32-8-26.32-21.42,0-10.64,3.64-16.66,13.72-21.56,7-3.22,21.56-4.62,32.48-5.32Zm-27.72,24.92c0,3.5,2.66,7.28,10.92,7.28,9.52,0,17.08-5.32,17.08-14.42v-2.38c-10.64.7-20.58,1.54-24.08,3.36C630.57,381.15,629.87,382.55,629.87,385.77Z"/><path class="cls-10" d="M747.32,381.57c-2.1,17.22-12.88,27.72-31.92,27.72-20.72,0-32.2-13.16-32.2-33.18v-9.24c0-20,11.48-33.18,32.2-33.18,19,0,29.82,10.5,31.92,27.72H728.84c-1.12-6.72-5.6-11.06-13.44-11.06-9,0-13.72,5.6-13.72,14.14v14c0,8.54,4.76,14.14,13.72,14.14,7.84,0,12.46-4.2,13.44-11.06Z"/><path class="cls-10" d="M772.33,360.85l23.1-25.2h22.4l-26.18,28.42,30,43.82h-21.7l-20.72-30.24-6.86,7.56v22.68H753.85v-98h18.48Z"/><path class="cls-10" d="M843.52,326.27H825V309.89h18.48Zm0,81.62H825V335.65h18.48Z"/><path class="cls-10" d="M917.79,407.89H899.31V365.75c0-9.66-6.72-14-13.72-14s-13.72,4.34-13.72,14v42.14H853.39V335.65h18.48V342c3.36-4.9,10.36-8.26,16.94-8.26,14.7,0,29,10.08,29,31.36Z"/><path class="cls-10" d="M943.23,408.31c1.54,6.3,5.88,10.08,13.3,10.08,9,0,13.72-5.6,13.72-14.14v-8.4c-3.36,4.9-10.36,8.26-16.94,8.26-14.7,0-29-10.08-29-31.36v-7.7c0-21.28,14.28-31.36,29-31.36,6.58,0,13.58,3.36,16.94,8.26v-6.3h18.48v66.22c0,20-11.48,33.18-32.2,33.18-18.62,0-29.54-10.08-31.78-26.74Zm-.42-36.26c0,9.66,6.72,14,13.72,14s13.72-4.34,13.72-14v-6.3c0-9.66-6.72-14-13.72-14s-13.72,4.34-13.72,14Z"/><path class="cls-10" d="M1046,349.09h40.88v18.62H1046v21.56h40.88v18.62h-59.64v-98h59.64v18.62H1046Z"/><path class="cls-10" d="M1138.62,335.65h21l-23.38,35.14,24.5,37.1H1139.6l-14.28-22.12L1111,407.89H1089.9l24.5-37.1L1091,335.65h21l13.3,20.44Z"/><path class="cls-10" d="M1183,433.65H1164.5v-98H1183V342c3.36-4.9,10.36-8.26,16.94-8.26,14.7,0,29,10.08,29,31.36v12.88c0,21.28-14.28,31.36-29,31.36-6.58,0-13.58-3.36-16.94-8.26Zm27.44-67.9c0-9.66-6.72-14-13.72-14s-13.72,4.34-13.72,14v11.48c0,9.66,6.72,14,13.72,14s13.72-4.34,13.72-14Z"/><path class="cls-10" d="M1234.68,366.87c0-20,11.48-33.18,32.2-33.18s32.2,13.16,32.2,33.18v9.24c0,20-11.48,33.18-32.2,33.18s-32.2-13.16-32.2-33.18Zm45.92-2.38c0-8.54-4.77-14.14-13.72-14.14s-13.72,5.6-13.72,14.14v14c0,8.54,4.76,14.14,13.72,14.14s13.72-5.6,13.72-14.14Z"/><path class="cls-10" d="M1303.11,384.51h18.48c.7,5.6,7.56,8.12,13.44,8.12,3.64,0,9.1-.84,9.1-5.6,0-2.8-2.1-4.62-6.44-5.6l-15.12-3.36c-7.84-1.82-17.78-8-17.78-22.12s12.74-22.26,27.58-22.26c14.56,0,26.88,7,28,23.38h-18.9c-1-4.62-5-6.72-9.66-6.72-5.46,0-8.4,2.1-8.54,5.46s2.38,4.62,5.6,5.32l16.24,3.64c7.84,1.82,17.5,7.28,17.5,22.26,0,16.24-13.16,22.26-28.14,22.26S1303.81,401.73,1303.11,384.51Z"/><path class="cls-10" d="M1385.37,378.07v.42c0,8.54,4.76,14.14,13.72,14.14,6.58,0,10.92-3.08,12.74-8h18.76c-2.94,15.12-13.58,24.64-31.5,24.64-20.72,0-32.2-13.16-32.2-33.18v-9.24c0-20,11.48-33.18,32.2-33.18s32.2,13.16,32.2,33.18v11.2Zm0-15.4v.14h27.3v-.14c-.56-7.7-5.18-12.32-13.58-12.32S1386.07,355.25,1385.37,362.67Z"/><path class="cls-10" d="M1482.67,401c-3.36,4.9-10.36,8.26-16.94,8.26-14.7,0-29-10.08-29-31.36V365.05c0-21.28,14.28-31.36,29-31.36,6.58,0,13.58,3.36,16.94,8.26V309.89h18.48v98h-18.48Zm-27.44-23.8c0,9.66,6.72,14,13.72,14s13.72-4.34,13.72-14V365.75c0-9.66-6.72-14-13.72-14s-13.72,4.34-13.72,14Z"/><path class="cls-10" d="M450.75,300A150.38,150.38,0,0,0,310.93,150v21.16c66.36,5.39,118.71,61.11,118.71,128.84S377.29,423.45,310.93,428.84V450A150.38,150.38,0,0,0,450.75,300Z"/><path class="cls-10" d="M171.11,300c0-67.73,52.35-123.45,118.71-128.84V150a150.37,150.37,0,0,0,0,300V428.84C223.46,423.45,171.11,367.73,171.11,300Z"/><path class="cls-10" d="M248.93,210.9A102.9,102.9,0,0,0,206.46,342l18.42-10.64a81.76,81.76,0,0,1,140.43-81.08l18.43-10.63A102.9,102.9,0,0,0,248.93,210.9Z"/><path class="cls-10" d="M341.27,370.83a81.91,81.91,0,0,1-105.84-21.15L217,360.31A102.9,102.9,0,0,0,394.29,258L375.87,268.6A81.9,81.9,0,0,1,341.27,370.83Z"/><path class="cls-10" d="M328.07,252a55.41,55.41,0,0,0-69.52,11.65l18.84,10.88a34.29,34.29,0,0,1,56.52,32.63l18.84,10.87A55.41,55.41,0,0,0,328.07,252Z"/><path class="cls-10" d="M283.23,329.7a34.35,34.35,0,0,1-16.39-36.88L248,282a55.4,55.4,0,0,0,94.2,54.38l-18.85-10.88A34.33,34.33,0,0,1,283.23,329.7Z"/></svg>