<svg id="Layer_1" data-name="Layer 1" xmlns="http://www.w3.org/2000/svg" viewBox="0 0 600 600"><defs><style>.cls-1{fill:#1b1b1b;}</style></defs><title>TrackingExposed</title><path class="cls-1" d="M450.75,300A150.38,150.38,0,0,0,310.93,150v21.16c66.36,5.39,118.71,61.11,118.71,128.84S377.29,423.45,310.93,428.84V450A150.38,150.38,0,0,0,450.75,300Z"/><path class="cls-1" d="M171.11,300c0-67.73,52.35-123.45,118.71-128.84V150a150.37,150.37,0,0,0,0,300V428.84C223.46,423.45,171.11,367.73,171.11,300Z"/><path class="cls-1" d="M248.93,210.9A102.9,102.9,0,0,0,206.46,342l18.42-10.64a81.76,81.76,0,0,1,140.43-81.08l18.43-10.63A102.9,102.9,0,0,0,248.93,210.9Z"/><path class="cls-1" d="M341.27,370.83a81.91,81.91,0,0,1-105.84-21.15L217,360.31A102.9,102.9,0,0,0,394.29,258L375.87,268.6A81.9,81.9,0,0,1,341.27,370.83Z"/><path class="cls-1" d="M328.07,252a55.41,55.41,0,0,0-69.52,11.65l18.84,10.88a34.29,34.29,0,0,1,56.52,32.63l18.84,10.87A55.41,55.41,0,0,0,328.07,252Z"/><path class="cls-1" d="M283.23,329.7a34.35,34.35,0,0,1-16.39-36.88L248,282a55.4,55.4,0,0,0,94.2,54.38l-18.85-10.88A34.33,34.33,0,0,1,283.23,329.7Z"/></svg>