<svg id="Layer_1" data-name="Layer 1" xmlns="http://www.w3.org/2000/svg" xmlns:xlink="http://www.w3.org/1999/xlink" viewBox="0 0 1800 600"><defs><style>.cls-1{fill:none;}.cls-2{fill:#161614;}.cls-3{clip-path:url(#clip-path);}</style><clipPath id="clip-path"><circle class="cls-1" cx="1100" cy="300" r="150"/></clipPath></defs><title>TrackingExposed</title><path class="cls-2" d="M300,171.05A129,129,0,1,1,171.05,300,129.1,129.1,0,0,1,300,171.05M300,150A150,150,0,1,0,450,300,150,150,0,0,0,300,150Z"/><circle class="cls-2" cx="300" cy="257.89" r="10.53"/><circle class="cls-2" cx="300" cy="215.79" r="10.53"/><circle class="cls-2" cx="300" cy="384.21" r="10.53"/><circle class="cls-2" cx="257.89" cy="227.07" r="10.53"/><circle class="cls-2" cx="342.11" cy="372.93" r="10.53"/><circle class="cls-2" cx="227.07" cy="257.89" r="10.53"/><circle class="cls-2" cx="372.93" cy="342.11" r="10.53"/><circle class="cls-2" cx="215.79" cy="300" r="10.53"/><circle class="cls-2" cx="384.21" cy="300" r="10.53"/><circle class="cls-2" cx="227.07" cy="342.11" r="10.53"/><circle class="cls-2" cx="372.93" cy="257.89" r="10.53"/><circle class="cls-2" cx="257.89" cy="372.93" r="10.53"/><circle class="cls-2" cx="342.11" cy="227.07" r="10.53"/><circle class="cls-2" cx="300" cy="342.11" r="10.53"/><circle class="cls-2" cx="263.54" cy="278.95" r="10.53"/><circle class="cls-2" cx="336.46" cy="321.05" r="10.53"/><circle class="cls-2" cx="263.54" cy="321.05" r="10.53"/><circle class="cls-2" cx="336.46" cy="278.95" r="10.53"/><circle class="cls-2" cx="300" cy="300" r="10.53"/><path class="cls-2" d="M1500,171.05a129,129,0,1,1-129,129,129.1,129.1,0,0,1,129-128.95m0-21.05a150,150,0,1,0,150,150,150,150,0,0,0-150-150Z"/><path class="cls-2" d="M1484.21,242.87c4.77,6.61,10.14,14.29,15.47,22.42,27.86,42.51,29.27,58.29,29.27,61a44.74,44.74,0,0,1-89.48,0c0-2.74,1.41-18.52,29.27-61,5.33-8.13,10.7-15.81,15.47-22.42m0-35s-65.79,82.09-65.79,118.43a65.79,65.79,0,1,0,131.58,0c0-36.34-65.79-118.43-65.79-118.43Z"/><path class="cls-2" d="M1535.53,243.12c2.85,4.06,5.87,8.46,8.88,13.05,22.06,33.67,22.7,45.25,22.7,46.46a31.58,31.58,0,0,1-63.16,0c0-1.21.63-12.79,22.69-46.46,3-4.59,6-9,8.89-13.05m0-35.23s-52.64,65.67-52.64,94.74a52.64,52.64,0,0,0,105.27,0c0-29.07-52.63-94.74-52.63-94.74Z"/><g class="cls-3"><path class="cls-2" d="M1007.89,282.89A107.9,107.9,0,1,1,900,390.79a108,108,0,0,1,107.89-107.9m0-21.05a129,129,0,1,0,128.95,129,128.94,128.94,0,0,0-128.95-129Z"/></g><path class="cls-2" d="M1100,171.05a129,129,0,1,1-129,129,129.1,129.1,0,0,1,129-128.95m0-21.05a150,150,0,1,0,150,150,150,150,0,0,0-150-150Z"/><polygon class="cls-2" points="1131.46 359.01 1113.05 348.81 1138.81 302.31 1093.57 310.92 1107.14 268.74 1060.32 291.69 1051.05 272.79 1142.36 228.03 1124.47 283.61 1178.99 273.24 1131.46 359.01"/><path class="cls-2" d="M700,171.05a129,129,0,1,1-129,129A129.1,129.1,0,0,1,700,171.05M700,150A150,150,0,1,0,850,300,150,150,0,0,0,700,150Z"/><path class="cls-2" d="M687.45,268.38,736.27,300l-48.82,31.62V268.38m-16.8-35.17a4.25,4.25,0,0,0-4.26,4.25V362.54a4.23,4.23,0,0,0,6.55,3.56l96.56-62.54a4.24,4.24,0,0,0,0-7.12L672.94,233.9a4.21,4.21,0,0,0-2.29-.69Z"/></svg>