<?xml version="1.0" encoding="UTF-8" standalone="no"?>
<!-- Created with Inkscape (http://www.inkscape.org/) -->

<svg
   xmlns:dc="http://purl.org/dc/elements/1.1/"
   xmlns:cc="http://creativecommons.org/ns#"
   xmlns:rdf="http://www.w3.org/1999/02/22-rdf-syntax-ns#"
   xmlns:svg="http://www.w3.org/2000/svg"
   xmlns="http://www.w3.org/2000/svg"
   xmlns:sodipodi="http://sodipodi.sourceforge.net/DTD/sodipodi-0.dtd"
   xmlns:inkscape="http://www.inkscape.org/namespaces/inkscape"
   width="1000"
   height="300.00009"
   viewBox="0 0 1000 300.00009"
   id="svg2"
   version="1.1"
   inkscape:version="0.91 r13725"
   sodipodi:docname="fbtrex_logo_payoff.svg"
   inkscape:export-filename="/Users/lucacorsato/Documents/lavori/facebook tracking exposed/facebook-tracking-exposend_logo_1.png"
   inkscape:export-xdpi="300"
   inkscape:export-ydpi="300">
  <sodipodi:namedview
     id="base"
     pagecolor="#ffffff"
     bordercolor="#666666"
     borderopacity="1.0"
     inkscape:pageopacity="0.0"
     inkscape:pageshadow="2"
     inkscape:zoom="0.7"
     inkscape:cx="408.66359"
     inkscape:cy="162.91557"
     inkscape:document-units="px"
     inkscape:current-layer="layer1"
     showgrid="false"
     units="px"
     inkscape:showpageshadow="false"
     inkscape:snap-bbox="true"
     inkscape:bbox-paths="true"
     inkscape:bbox-nodes="true"
     inkscape:snap-bbox-edge-midpoints="true"
     inkscape:snap-bbox-midpoints="true"
     inkscape:object-paths="true"
     inkscape:snap-intersection-paths="true"
     inkscape:object-nodes="true"
     inkscape:snap-smooth-nodes="true"
     inkscape:snap-midpoints="true"
     inkscape:window-width="1680"
     inkscape:window-height="954"
     inkscape:window-x="0"
     inkscape:window-y="1"
     inkscape:window-maximized="1"
     fit-margin-top="0"
     fit-margin-left="0"
     fit-margin-right="0"
     fit-margin-bottom="0" />
  <defs
     id="defs4" />
  <metadata
     id="metadata7">
    <rdf:RDF>
      <cc:Work
         rdf:about="">
        <dc:format>image/svg+xml</dc:format>
        <dc:type
           rdf:resource="http://purl.org/dc/dcmitype/StillImage" />
        <dc:title></dc:title>
      </cc:Work>
    </rdf:RDF>
  </metadata>
  <g
     inkscape:label="Livello 1"
     inkscape:groupmode="layer"
     id="layer1"
     transform="translate(332.85715,-1065.2193)">
    <rect
       style="opacity:1;fill:#ffffff;fill-opacity:1;stroke:none;stroke-width:0.23199999;stroke-linecap:round;stroke-linejoin:round;stroke-miterlimit:4;stroke-dasharray:none;stroke-opacity:1"
       id="rect4257"
       width="1000"
       height="300"
       x="-332.85715"
       y="1065.2194"
       rx="0"
       ry="0" />
    <flowRoot
       xml:space="preserve"
       id="flowRoot4490"
       style="font-style:normal;font-variant:normal;font-weight:normal;font-stretch:normal;font-size:12.5px;line-height:125%;font-family:'HelveticaNeueLT Std Med';-inkscape-font-specification:'HelveticaNeueLT Std Med, Normal';text-align:start;letter-spacing:0px;word-spacing:0px;writing-mode:lr-tb;text-anchor:start;fill:#000000;fill-opacity:1;stroke:none;stroke-width:1px;stroke-linecap:butt;stroke-linejoin:miter;stroke-opacity:1"><flowRegion
         id="flowRegion4492"><rect
           id="rect4494"
           width="218.19293"
           height="60.609245"
           x="-76.771576"
           y="388.89334" /></flowRegion><flowPara
         id="flowPara4496" /></flowRoot>    <g
       id="g4477"
       transform="matrix(1.5142687,-0.20299398,0.20643201,1.4890492,131.75331,-106.38104)"
       inkscape:export-xdpi="300"
       inkscape:export-ydpi="300"
       inkscape:transform-center-x="-149.95938"
       inkscape:transform-center-y="51.889367">
      <path
         sodipodi:nodetypes="cccccccc"
         inkscape:connector-curvature="0"
         id="path4422"
         d="m 233.38337,838.75308 c -28.16756,-8.76393 -62.20475,-26.01357 -78.6505,23.9433 l -6.47198,24.15375 33.82225,9.06264 5.60284,-20.91007 c 3.36052,-11.88273 10.74608,-14.29179 20.50304,-11.59543 l 17.34569,4.63741 z"
         style="fill:#66b032;fill-opacity:1;fill-rule:evenodd;stroke:#66b032;stroke-width:0.87176645px;stroke-linecap:butt;stroke-linejoin:miter;stroke-opacity:1"
         inkscape:export-xdpi="300"
         inkscape:export-ydpi="300" />
      <path
         style="fill:#3c5a99;fill-opacity:1;fill-rule:evenodd;stroke:#3c5a99;stroke-width:1px;stroke-linecap:butt;stroke-linejoin:miter;stroke-opacity:1"
         d="m 124.41548,917.56845 -33.822242,-9.06265 -22.51852,84.04037 33.822242,9.06263 z"
         id="path4424"
         inkscape:connector-curvature="0"
         inkscape:export-xdpi="300"
         inkscape:export-ydpi="300" />
      <path
         id="path4426"
         transform="translate(0,752.36216)"
         d="m 38.916016,106.1582 -4.552735,33.88282 90.310549,24.19921 8.77539,-32.75195 -94.533204,-25.33008 z m 95.500004,25.58985 -8.7754,32.75195 90.31055,24.19727 13,-31.61915 -94.53515,-25.33007 z"
         style="fill:#fd5308;fill-opacity:1;fill-rule:evenodd;stroke:#fd5308;stroke-width:1px;stroke-linecap:butt;stroke-linejoin:miter;stroke-opacity:1"
         inkscape:connector-curvature="0" />
      <path
         inkscape:export-ydpi="300"
         inkscape:export-xdpi="300"
         style="fill:#66b032;fill-opacity:1;fill-rule:evenodd;stroke:#66b032;stroke-width:0.87176645px;stroke-linecap:butt;stroke-linejoin:miter;stroke-opacity:1"
         d="m 188.67027,1005.6246 c -28.77579,-6.49397 -66.87767,-8.57394 -56.14168,-60.06073 l 6.47198,-24.15375 33.82225,9.06265 -5.60284,20.91007 c -3.03107,11.971 2.16049,17.75009 11.95844,20.29345 l 17.34052,4.65673 z"
         id="path4457"
         inkscape:connector-curvature="0"
         sodipodi:nodetypes="cccccccc" />
      <path
         inkscape:export-ydpi="300"
         inkscape:export-xdpi="300"
         style="fill:#3c5a99;fill-opacity:1;fill-rule:evenodd;stroke:#3c5a99;stroke-width:0.87176645px;stroke-linecap:butt;stroke-linejoin:miter;stroke-opacity:1"
         d="m 84.084651,798.7486 c 28.775789,6.494 66.877669,8.57397 56.141679,60.06076 l -6.47198,24.15375 -33.822243,-9.06264 5.602843,-20.91008 c 3.03106,-11.971 -2.16049,-17.75009 -11.958447,-20.29345 l -17.340515,-4.65673 z"
         id="path4459"
         inkscape:connector-curvature="0"
         sodipodi:nodetypes="cccccccc" />
    </g>
    <g
       id="g4252"
       style="fill:#4d4d4d"
       transform="translate(73.909342,447.13188)">
      <path
         d="m -323.3465,678.62841 45.36243,0 0,17.88776 -6.43024,0.17537 q -0.35074,-10.75604 -6.0795,-10.75604 l -2.74747,0 0,27.2993 q 0,2.68901 5.26111,2.68901 l 0,6.13796 -25.25331,0 0,-6.13796 q 5.20265,0 5.20265,-2.68901 l 0,-27.2993 -2.80593,0 q -5.72876,0 -6.0795,10.75604 l -6.43024,-0.17537 0,-17.88776 z"
         style="font-style:normal;font-variant:normal;font-weight:900;font-stretch:normal;font-size:medium;line-height:154.99999523%;font-family:Superclarendon;-inkscape-font-specification:'Superclarendon Heavy';letter-spacing:1.73908818px;word-spacing:0px;fill:#4d4d4d;fill-opacity:1;stroke:none;stroke-width:1px;stroke-linecap:butt;stroke-linejoin:miter;stroke-opacity:1"
         id="path4171"
         inkscape:connector-curvature="0" />
      <path
         d="m -247.91355,715.98227 q 2.68901,0 2.68901,-2.63056 l 0,-5.90413 q 0,-7.30709 -3.27358,-7.30709 -3.9166,0 -5.20265,6.66407 l 0,6.54715 q 0,2.63056 2.63055,2.63056 l 0,6.0795 -20.86905,0 0,-6.0795 q 4.91036,0 4.91036,-2.63056 l 0,-27.65004 q 0,-2.63055 -4.85191,-2.63055 l 0,-6.02104 18.18005,0 0,21.21979 q 3.85815,-6.54715 12.33437,-6.54715 9.47,0 9.47,8.71005 l 0,12.91894 q 0,2.63056 4.96882,2.63056 l 0,6.0795 -20.98597,0 0,-6.0795 0,0 z"
         style="font-style:normal;font-variant:normal;font-weight:900;font-stretch:normal;font-size:medium;line-height:154.99999523%;font-family:Superclarendon;-inkscape-font-specification:'Superclarendon Heavy';letter-spacing:1.73908818px;word-spacing:0px;fill:#4d4d4d;fill-opacity:1;stroke:none;stroke-width:1px;stroke-linecap:butt;stroke-linejoin:miter;stroke-opacity:1"
         id="path4173"
         inkscape:connector-curvature="0" />
      <path
         d="m -207.31808,707.79832 q 0.17537,4.735 1.51987,6.78098 1.34451,1.98753 4.3258,1.98753 2.22136,0 4.15043,-1.28604 1.92907,-1.34451 2.51364,-3.79969 l 6.19641,0.40919 q -0.35074,2.10445 -1.40296,4.15043 -1.05222,1.98753 -2.80592,3.56586 -1.7537,1.51988 -4.26734,2.45519 -2.45519,0.99376 -5.67031,0.99376 -3.68277,0 -6.95635,-0.81839 -3.21512,-0.75994 -5.6703,-2.5721 -2.39673,-1.87061 -3.79969,-4.91037 -1.34451,-3.0982 -1.34451,-7.59937 0,-7.65783 4.3258,-11.80826 4.3258,-4.20889 12.5682,-4.20889 4.15043,0 7.13172,0.93531 3.03976,0.87685 5.02728,2.86438 1.98753,1.98753 2.92284,5.20265 0.93531,3.15666 0.93531,7.65783 l -19.69992,0 z m 9.06079,-4.96882 q 0,-1.05222 -0.23382,-2.22136 -0.17537,-1.22759 -0.70149,-2.22135 -0.52611,-1.05222 -1.40296,-1.69525 -0.87685,-0.70148 -2.1629,-0.70148 -3.9166,0 -4.44271,6.83944 l 8.94388,0 z"
         style="font-style:normal;font-variant:normal;font-weight:900;font-stretch:normal;font-size:medium;line-height:154.99999523%;font-family:Superclarendon;-inkscape-font-specification:'Superclarendon Heavy';letter-spacing:1.73908818px;word-spacing:0px;fill:#4d4d4d;fill-opacity:1;stroke:none;stroke-width:1px;stroke-linecap:butt;stroke-linejoin:miter;stroke-opacity:1"
         id="path4175"
         inkscape:connector-curvature="0" />
    </g>
    <path
       inkscape:connector-curvature="0"
       id="path4177"
       style="font-style:normal;font-variant:normal;font-weight:900;font-stretch:normal;font-size:medium;line-height:154.99999523%;font-family:Superclarendon;-inkscape-font-specification:'Superclarendon Heavy';letter-spacing:1.73908818px;word-spacing:0px;fill:#3c5a99;fill-opacity:1;stroke:none;stroke-width:1px;stroke-linecap:butt;stroke-linejoin:miter;stroke-opacity:1"
       d="m -69.238768,1169.6028 q -3.21512,0 -5.37802,-0.643 -2.1629,-0.7015 -3.5074,-1.9291 -1.28605,-1.2275 -1.87062,-2.9228 -0.52611,-1.7537 -0.52611,-3.8581 l 0,-15.7249 -4.96882,0 0,-4.3258 q 1.57833,-0.1169 3.21512,-0.4676 1.63679,-0.3508 2.92284,-1.2276 1.3445,-0.8769 2.1629,-2.4552 0.87685,-1.5784 0.87685,-4.092 l 0,-1.286 9.11925,-0.4092 0,9.1777 7.54092,0 -0.29229,5.7287 q -1.57833,-0.3507 -3.39049,-0.4676 -1.81216,-0.1754 -3.85814,-0.1754 l 0,16.894 q 0,1.3445 0.4092,1.9875 0.40919,0.6431 1.51987,0.6431 1.11068,0 1.51988,-0.6431 0.40919,-0.643 0.40919,-1.9875 l 0,-2.2214 4.03352,0 0,1.1107 q 0,4.1505 -2.33827,6.7225 -2.27981,2.5721 -7.59938,2.5721 z" />
    <path
       inkscape:connector-curvature="0"
       id="path4179"
       style="font-style:normal;font-variant:normal;font-weight:900;font-stretch:normal;font-size:medium;line-height:154.99999523%;font-family:Superclarendon;-inkscape-font-specification:'Superclarendon Heavy';letter-spacing:1.73908818px;word-spacing:0px;fill:#000000;fill-opacity:1;stroke:none;stroke-width:1px;stroke-linecap:butt;stroke-linejoin:miter;stroke-opacity:1"
       d="m -35.370388,1160.4836 q 0,2.6305 4.91036,2.6305 l 0,6.0796 -23.14887,0 0,-6.0796 q 4.91037,0 4.91037,-2.6305 l 0,-12.3344 q 0,-2.689 -4.91037,-2.689 l 0,-6.021 18.23851,0 0,21.0444 z m -13.21123,-30.1052 q 0,-1.403 0.52611,-2.6306 0.52611,-1.2276 1.46142,-2.1629 0.93531,-0.9353 2.1629,-1.4614 1.22759,-0.5261 2.63055,-0.5261 1.40297,0 2.63056,0.5261 1.22759,0.5261 2.1629,1.4614 0.93531,0.9353 1.46142,2.1629 0.52611,1.2276 0.52611,2.6306 0,1.4029 -0.52611,2.6305 -0.52611,1.2276 -1.46142,2.1629 -0.93531,0.9353 -2.1629,1.4614 -1.22759,0.5262 -2.63056,0.5262 -1.40296,0 -2.63055,-0.5262 -1.22759,-0.5261 -2.1629,-1.4614 -0.93531,-0.9353 -1.46142,-2.1629 -0.52611,-1.2276 -0.52611,-2.6305 z" />
    <path
       inkscape:connector-curvature="0"
       id="path4181"
       style="font-style:normal;font-variant:normal;font-weight:900;font-stretch:normal;font-size:medium;line-height:154.99999523%;font-family:Superclarendon;-inkscape-font-specification:'Superclarendon Heavy';letter-spacing:1.73908818px;word-spacing:0px;fill:#000000;fill-opacity:1;stroke:none;stroke-width:1px;stroke-linecap:butt;stroke-linejoin:miter;stroke-opacity:1"
       d="m 19.719608,1163.1141 q 2.455183,0 2.455183,-2.6305 l 0,-5.6118 q 0,-7.3071 -2.981293,-7.3071 -3.507405,0 -4.734996,6.664 l 0,6.2549 q 0,1.3445 0.70148,1.9875 0.759938,0.643 1.753703,0.643 l 0,6.0796 -18.180047,0 0,-6.0796 q 2.455183,0 2.455183,-2.6305 l 0,-5.6118 q 0,-7.3071 -2.981294,-7.3071 -3.507404,0 -4.734996,6.664 l 0,6.2549 q 0,2.6305 2.455184,2.6305 l 0,6.0796 -20.167576,0 0,-6.0796 q 4.442712,0 4.442712,-2.6305 l 0,-12.3928 q 0,-2.6306 -4.384255,-2.6306 l 0,-6.021 17.653935,0 0,5.9626 q 3.565862,-6.5472 11.223695,-6.5472 1.812159,0 3.448947,0.4092 1.695246,0.4092 2.981294,1.286 1.286049,0.8184 2.104443,2.046 0.876851,1.2276 1.110678,2.8644 2.045986,-3.7412 4.85191,-5.1442 2.805923,-1.4614 6.488698,-1.4614 2.162899,0 3.916602,0.5846 1.812159,0.5261 3.098207,1.6368 1.286048,1.0522 1.987529,2.689 0.759938,1.6368 0.759938,3.7997 l 0,12.9189 q 0,2.6306 4.501169,2.6306 l 0,6.0795 -20.226033,0 0,-6.0795 0,0 z" />
    <path
       inkscape:connector-curvature="0"
       id="path4183"
       style="font-style:normal;font-variant:normal;font-weight:900;font-stretch:normal;font-size:medium;line-height:154.99999523%;font-family:Superclarendon;-inkscape-font-specification:'Superclarendon Heavy';letter-spacing:1.73908818px;word-spacing:0px;fill:#000000;fill-opacity:1;stroke:none;stroke-width:1px;stroke-linecap:butt;stroke-linejoin:miter;stroke-opacity:1"
       d="m 59.676625,1154.9302 q 0.17537,4.735 1.519875,6.781 1.344505,1.9875 4.325799,1.9875 2.221356,0 4.150429,-1.286 1.929072,-1.3445 2.51364,-3.7997 l 6.196414,0.4092 q -0.35074,2.1044 -1.402962,4.1504 -1.052221,1.9875 -2.805923,3.5659 -1.753703,1.5198 -4.267342,2.4552 -2.455184,0.9937 -5.670304,0.9937 -3.682775,0 -6.956353,-0.8184 -3.21512,-0.7599 -5.670303,-2.5721 -2.396727,-1.8706 -3.799689,-4.9103 -1.344505,-3.0982 -1.344505,-7.5994 0,-7.6578 4.325799,-11.8083 4.325799,-4.2089 12.5682,-4.2089 4.150428,0 7.131722,0.9353 3.039751,0.8769 5.02728,2.8644 1.987529,1.9875 2.922837,5.2027 0.935308,3.1566 0.935308,7.6578 l -19.699922,0 z m 9.060795,-4.9688 q 0,-1.0522 -0.233827,-2.2214 -0.17537,-1.2276 -0.701481,-2.2213 -0.526111,-1.0523 -1.402962,-1.6953 -0.876851,-0.7015 -2.162899,-0.7015 -3.916602,0 -4.442713,6.8395 l 8.943882,0 z" />
    <path
       inkscape:connector-curvature="0"
       id="path4185"
       style="font-style:normal;font-variant:normal;font-weight:900;font-stretch:normal;font-size:medium;line-height:154.99999523%;font-family:Superclarendon;-inkscape-font-specification:'Superclarendon Heavy';letter-spacing:1.73908818px;word-spacing:0px;fill:#000000;fill-opacity:1;stroke:none;stroke-width:1px;stroke-linecap:butt;stroke-linejoin:miter;stroke-opacity:1"
       d="m 103.88634,1160.4836 q 0,2.6305 4.91036,2.6305 l 0,6.0796 -23.148866,0 0,-6.0796 q 4.910366,0 4.910366,-2.6305 l 0,-27.65 q 0,-2.6306 -4.910366,-2.6306 l 0,-6.021 18.238506,0 0,36.3016 z" />
    <path
       inkscape:connector-curvature="0"
       id="path4187"
       style="font-style:normal;font-variant:normal;font-weight:900;font-stretch:normal;font-size:medium;line-height:154.99999523%;font-family:Superclarendon;-inkscape-font-specification:'Superclarendon Heavy';letter-spacing:1.73908818px;word-spacing:0px;fill:#000000;fill-opacity:1;stroke:none;stroke-width:1px;stroke-linecap:butt;stroke-linejoin:miter;stroke-opacity:1"
       d="m 133.25539,1160.4836 q 0,2.6305 4.91036,2.6305 l 0,6.0796 -23.14887,0 0,-6.0796 q 4.91037,0 4.91037,-2.6305 l 0,-12.3344 q 0,-2.689 -4.91037,-2.689 l 0,-6.021 18.23851,0 0,21.0444 z m -13.21123,-30.1052 q 0,-1.403 0.52611,-2.6306 0.52611,-1.2276 1.46142,-2.1629 0.93531,-0.9353 2.1629,-1.4614 1.22759,-0.5261 2.63055,-0.5261 1.40297,0 2.63056,0.5261 1.22759,0.5261 2.1629,1.4614 0.93531,0.9353 1.46142,2.1629 0.52611,1.2276 0.52611,2.6306 0,1.4029 -0.52611,2.6305 -0.52611,1.2276 -1.46142,2.1629 -0.93531,0.9353 -2.1629,1.4614 -1.22759,0.5262 -2.63056,0.5262 -1.40296,0 -2.63055,-0.5262 -1.22759,-0.5261 -2.1629,-1.4614 -0.93531,-0.9353 -1.46142,-2.1629 -0.52611,-1.2276 -0.52611,-2.6305 z" />
    <path
       inkscape:connector-curvature="0"
       id="path4189"
       style="font-style:normal;font-variant:normal;font-weight:900;font-stretch:normal;font-size:medium;line-height:154.99999523%;font-family:Superclarendon;-inkscape-font-specification:'Superclarendon Heavy';letter-spacing:1.73908818px;word-spacing:0px;fill:#000000;fill-opacity:1;stroke:none;stroke-width:1px;stroke-linecap:butt;stroke-linejoin:miter;stroke-opacity:1"
       d="m 168.41162,1163.1141 q 2.68901,0 2.68901,-2.6305 l 0,-5.6118 q 0,-7.3071 -3.27358,-7.3071 -3.9166,0 -5.20265,6.664 l 0,6.2549 q 0,2.6305 2.63056,2.6305 l 0,6.0796 -20.86906,0 0,-6.0796 q 4.91037,0 4.91037,-2.6305 l 0,-12.3928 q 0,-2.6306 -4.85191,-2.6306 l 0,-6.021 18.18004,0 0,5.9626 q 3.85815,-6.5472 12.33438,-6.5472 9.46999,0 9.46999,8.7101 l 0,12.9189 q 0,2.6306 4.96882,2.6306 l 0,6.0795 -20.98597,0 0,-6.0795 0,0 z" />
    <path
       inkscape:connector-curvature="0"
       id="path4191"
       style="font-style:normal;font-variant:normal;font-weight:900;font-stretch:normal;font-size:medium;line-height:154.99999523%;font-family:Superclarendon;-inkscape-font-specification:'Superclarendon Heavy';letter-spacing:1.73908818px;word-spacing:0px;fill:#000000;fill-opacity:1;stroke:none;stroke-width:1px;stroke-linecap:butt;stroke-linejoin:miter;stroke-opacity:1"
       d="m 209.0071,1154.9302 q 0.17537,4.735 1.51987,6.781 1.34451,1.9875 4.3258,1.9875 2.22136,0 4.15043,-1.286 1.92907,-1.3445 2.51364,-3.7997 l 6.19641,0.4092 q -0.35074,2.1044 -1.40296,4.1504 -1.05222,1.9875 -2.80592,3.5659 -1.7537,1.5198 -4.26734,2.4552 -2.45519,0.9937 -5.67031,0.9937 -3.68277,0 -6.95635,-0.8184 -3.21512,-0.7599 -5.6703,-2.5721 -2.39673,-1.8706 -3.79969,-4.9103 -1.34451,-3.0982 -1.34451,-7.5994 0,-7.6578 4.3258,-11.8083 4.3258,-4.2089 12.5682,-4.2089 4.15043,0 7.13172,0.9353 3.03976,0.8769 5.02728,2.8644 1.98753,1.9875 2.92284,5.2027 0.93531,3.1566 0.93531,7.6578 l -19.69992,0 z m 9.06079,-4.9688 q 0,-1.0522 -0.23382,-2.2214 -0.17537,-1.2276 -0.70149,-2.2213 -0.52611,-1.0523 -1.40296,-1.6953 -0.87685,-0.7015 -2.1629,-0.7015 -3.9166,0 -4.44271,6.8395 l 8.94388,0 z" />
    <path
       inkscape:connector-curvature="0"
       id="path4193"
       style="font-style:normal;font-variant:normal;font-weight:900;font-stretch:normal;font-size:medium;line-height:154.99999523%;font-family:Superclarendon;-inkscape-font-specification:'Superclarendon Heavy';letter-spacing:1.73908818px;word-spacing:0px;fill:#4d4d4d;fill-opacity:1;stroke:none;stroke-width:1px;stroke-linecap:butt;stroke-linejoin:miter;stroke-opacity:1"
       d="m 275.16459,1160.4836 q 0,2.6305 4.91037,2.6305 l 0,6.0796 -23.14887,0 0,-6.0796 q 4.91037,0 4.91037,-2.6305 l 0,-12.3344 q 0,-2.689 -4.91037,-2.689 l 0,-6.021 18.2385,0 0,21.0444 z m -13.21122,-30.1052 q 0,-1.403 0.52611,-2.6306 0.52611,-1.2276 1.46142,-2.1629 0.93531,-0.9353 2.1629,-1.4614 1.22759,-0.5261 2.63055,-0.5261 1.40296,0 2.63056,0.5261 1.22759,0.5261 2.1629,1.4614 0.9353,0.9353 1.46141,2.1629 0.52612,1.2276 0.52612,2.6306 0,1.4029 -0.52612,2.6305 -0.52611,1.2276 -1.46141,2.1629 -0.93531,0.9353 -2.1629,1.4614 -1.2276,0.5262 -2.63056,0.5262 -1.40296,0 -2.63055,-0.5262 -1.22759,-0.5261 -2.1629,-1.4614 -0.93531,-0.9353 -1.46142,-2.1629 -0.52611,-1.2276 -0.52611,-2.6305 z" />
    <path
       inkscape:connector-curvature="0"
       id="path4195"
       style="font-style:normal;font-variant:normal;font-weight:900;font-stretch:normal;font-size:medium;line-height:154.99999523%;font-family:Superclarendon;-inkscape-font-specification:'Superclarendon Heavy';letter-spacing:1.73908818px;word-spacing:0px;fill:#4d4d4d;fill-opacity:1;stroke:none;stroke-width:1px;stroke-linecap:butt;stroke-linejoin:miter;stroke-opacity:1"
       d="m 314.822,1149.2014 -6.02104,0.3508 q -0.4092,-1.403 -1.28605,-2.3383 -0.87685,-0.9937 -2.04599,-1.5199 -1.11068,-0.5845 -2.51364,-0.8184 -1.3445,-0.2338 -2.74747,-0.2338 -3.62431,0 -3.62431,1.8706 0,1.0523 1.05222,1.6368 1.11068,0.5846 2.92283,1.0522 1.81216,0.4092 4.15043,0.8184 2.39673,0.4092 4.96883,1.1692 3.68277,1.1107 5.43647,3.0982 1.75371,1.9875 1.75371,5.4949 0,2.5721 -1.05223,4.4427 -1.05222,1.8122 -2.68901,2.9813 -1.57833,1.1692 -3.56586,1.7537 -1.98753,0.5846 -3.9166,0.5846 -3.15666,0 -5.14419,-0.2923 -1.92907,-0.2923 -3.15667,-0.5846 -1.22759,-0.3507 -2.04598,-0.643 -0.75994,-0.2923 -1.51988,-0.2923 -0.52611,0 -0.87685,0.3508 -0.29228,0.2923 -0.58457,1.1107 l -5.96258,0 0,-9.9962 5.96258,-0.2338 q 0.35074,1.2276 1.46142,2.1045 1.11068,0.8768 2.63056,1.4614 1.57833,0.5845 3.33203,0.8768 1.81216,0.2923 3.5074,0.2923 3.21513,0 3.21513,-2.1629 0,-1.0522 -0.93531,-1.5783 -0.87685,-0.5846 -2.45519,-0.8769 -1.51987,-0.3507 -3.62431,-0.643 -2.10445,-0.2923 -4.44272,-0.8768 -2.57209,-0.6431 -4.26734,-1.5199 -1.63679,-0.9353 -2.63055,-2.1045 -0.99377,-1.1691 -1.40296,-2.6305 -0.4092,-1.4614 -0.4092,-3.2151 0,-4.092 2.80592,-6.6641 2.80593,-2.5721 7.89166,-2.5721 2.27982,0 3.97506,0.3507 1.69525,0.2923 2.86438,0.6431 1.22759,0.3507 2.04599,0.7014 0.87685,0.2923 1.51987,0.2923 0.99377,0 1.98753,-1.4029 l 5.43648,0 0,9.7622 z" />
    <g
       id="g4341">
      <path
         d="m -233.24464,1237.3542 q 0,0.4092 0.17537,0.7599 l 4.96882,13.5036 5.08574,-13.0359 q 0.23382,-0.4677 0.23382,-1.1107 0,-1.4029 -2.04598,-1.4029 l -0.64303,0 0,-6.0211 12.33438,0 0,6.0211 q -3.56586,0 -4.3258,1.9875 l -9.46999,23.9673 q -0.99377,2.5721 -2.1629,4.6765 -1.11068,2.1629 -2.63056,3.6828 -1.46142,1.5198 -3.44895,2.3382 -1.98752,0.8769 -4.79345,0.8769 -2.10444,0 -3.9166,-0.5261 -1.7537,-0.5261 -3.09821,-1.5784 -1.3445,-1.0522 -2.10444,-2.689 -0.75994,-1.6368 -0.75994,-3.8581 0,-2.4552 1.40296,-3.9166 1.46142,-1.403 4.09198,-1.403 2.1629,0 3.44894,0.9353 1.28605,0.9938 1.28605,2.7475 0,1.5199 -0.99376,2.5721 -0.99377,1.0522 -2.86438,1.1691 0.52611,0.8184 1.22759,1.2276 0.75994,0.4677 2.63055,0.4677 3.15667,0 5.37802,-3.2736 l -11.57443,-27.3578 q -0.46766,-0.9937 -1.63679,-1.5198 -1.11068,-0.5261 -2.39673,-0.5261 l 0,-6.0211 19.0569,0 0,6.0211 -0.93531,0 q -1.51987,0 -1.51987,1.286 z"
         style="font-style:normal;font-variant:normal;font-weight:900;font-stretch:normal;font-size:medium;line-height:154.99999523%;font-family:Superclarendon;-inkscape-font-specification:'Superclarendon Heavy';letter-spacing:1.73908818px;word-spacing:0px;fill:#4d4d4d;fill-opacity:1;stroke:none;stroke-width:1px;stroke-linecap:butt;stroke-linejoin:miter;stroke-opacity:1"
         id="path4197"
         inkscape:connector-curvature="0" />
      <path
         d="m -174.67647,1244.7782 q 0,8.067 -4.61808,12.0421 -4.55962,3.9751 -12.74357,3.9751 -3.33203,0 -6.37178,-0.6431 -3.03975,-0.643 -5.37802,-2.3382 -2.27982,-1.6953 -3.62432,-4.6766 -1.34451,-2.9813 -1.34451,-7.6578 0,-8.5931 4.38426,-12.5682 4.38426,-4.0335 12.91894,-4.0335 3.44895,0 6.4887,0.7015 3.09821,0.7014 5.37802,2.5136 2.27981,1.7537 3.56586,4.8519 1.3445,3.0398 1.3445,7.8332 z m -17.18628,9.5285 q 1.11068,0 1.81216,-0.3508 0.75994,-0.4092 1.16914,-1.4029 0.46765,-1.0523 0.64302,-2.8644 0.23383,-1.8122 0.23383,-4.6766 0,-2.9813 -0.17537,-4.8519 -0.17537,-1.8706 -0.64303,-2.9228 -0.40919,-1.0522 -1.11068,-1.403 -0.70148,-0.4092 -1.7537,-0.4092 -0.99376,0 -1.7537,0.3508 -0.70148,0.3507 -1.16913,1.286 -0.46766,0.9353 -0.70149,2.6306 -0.23382,1.6368 -0.23382,4.2673 0,3.2736 0.11691,5.3196 0.17537,2.046 0.58457,3.1566 0.4092,1.1107 1.11068,1.5199 0.70148,0.3508 1.87061,0.3508 z"
         style="font-style:normal;font-variant:normal;font-weight:900;font-stretch:normal;font-size:medium;line-height:154.99999523%;font-family:Superclarendon;-inkscape-font-specification:'Superclarendon Heavy';letter-spacing:1.73908818px;word-spacing:0px;fill:#4d4d4d;fill-opacity:1;stroke:none;stroke-width:1px;stroke-linecap:butt;stroke-linejoin:miter;stroke-opacity:1"
         id="path4199"
         inkscape:connector-curvature="0" />
      <path
         d="m -150.83159,1230.0471 0,14.5557 q 0,7.3071 3.27357,7.3071 1.92908,0 3.03976,-1.6367 1.11067,-1.6953 1.7537,-5.0273 l 0,-6.4887 q 0,-1.3445 -0.87685,-1.9876 -0.87685,-0.7014 -2.86438,-0.7014 l 0,-6.0211 16.77708,0 0,21.1029 q 0,2.6306 4.85191,2.6306 l 0,6.021 -17.88776,0 0,-5.9626 q -1.92908,3.332 -4.735,4.9688 -2.74747,1.5784 -7.01481,1.5784 -4.73499,0 -6.95635,-2.1629 -2.22136,-2.1629 -2.22136,-6.5472 l 0,-12.9774 q 0,-2.6305 -4.96882,-2.6305 l 0,-6.0211 17.82931,0 z"
         style="font-style:normal;font-variant:normal;font-weight:900;font-stretch:normal;font-size:medium;line-height:154.99999523%;font-family:Superclarendon;-inkscape-font-specification:'Superclarendon Heavy';letter-spacing:1.73908818px;word-spacing:0px;fill:#4d4d4d;fill-opacity:1;stroke:none;stroke-width:1px;stroke-linecap:butt;stroke-linejoin:miter;stroke-opacity:1"
         id="path4201"
         inkscape:connector-curvature="0" />
      <path
         d="m -90.918008,1235.0744 q -1.11068,-1.2861 -2.51364,-1.2861 -1.22759,0 -2.39673,0.8184 -1.16913,0.8184 -2.1629,2.1629 -0.9353,1.2861 -1.57833,2.9229 -0.643022,1.6368 -0.818392,3.2736 l 0,8.1254 q 0,1.3445 1.578332,1.9876 1.63679,0.643 3.97506,0.643 l 0,6.0795 -23.791902,0 0,-6.0795 q 4.91037,0 4.91037,-2.6306 l 0,-12.3928 q 0,-2.6305 -4.85191,-2.6305 l 0,-6.0211 18.18005,0 0,5.3196 q 2.747462,-6.4887 8.651602,-6.4887 1.51987,0 3.03975,0.5261 1.51987,0.4676 2.68901,1.4614 1.22759,0.9353 1.98753,2.3967 0.75993,1.403 0.75993,3.2152 0,3.2151 -1.63679,5.378 -1.57833,2.1629 -4.38425,2.1629 -2.63055,0 -4.03352,-1.2861 -1.3445,-1.286 -1.3445,-3.332 0,-1.4614 0.81839,-2.8059 0.87685,-1.3445 2.92284,-1.5199 z"
         style="font-style:normal;font-variant:normal;font-weight:900;font-stretch:normal;font-size:medium;line-height:154.99999523%;font-family:Superclarendon;-inkscape-font-specification:'Superclarendon Heavy';letter-spacing:1.73908818px;word-spacing:0px;fill:#4d4d4d;fill-opacity:1;stroke:none;stroke-width:1px;stroke-linecap:butt;stroke-linejoin:miter;stroke-opacity:1"
         id="path4203"
         inkscape:connector-curvature="0" />
    </g>
    <path
       inkscape:connector-curvature="0"
       id="path4205"
       style="font-style:normal;font-variant:normal;font-weight:900;font-stretch:normal;font-size:medium;line-height:154.99999523%;font-family:Superclarendon;-inkscape-font-specification:'Superclarendon Heavy';letter-spacing:1.73908818px;word-spacing:0px;fill:#fd5308;fill-opacity:1;stroke:none;stroke-width:1px;stroke-linecap:butt;stroke-linejoin:miter;stroke-opacity:1"
       d="m -30.953258,1253.7221 q 2.68901,0 2.68901,-2.6306 l 0,-5.6118 q 0,-7.3071 -3.27358,-7.3071 -3.9166,0 -5.20265,6.6641 l 0,6.2548 q 0,2.6306 2.63055,2.6306 l 0,6.0795 -20.86905,0 0,-6.0795 q 4.91036,0 4.91036,-2.6306 l 0,-12.3928 q 0,-2.6305 -4.85191,-2.6305 l 0,-6.0211 18.18005,0 0,5.9626 q 3.85814,-6.5471 12.334372,-6.5471 9.469992,0 9.469992,8.71 l 0,12.9189 q 0,2.6306 4.968823,2.6306 l 0,6.0795 -20.985967,0 0,-6.0795 0,0 z" />
    <path
       inkscape:connector-curvature="0"
       id="path4207"
       style="font-style:normal;font-variant:normal;font-weight:900;font-stretch:normal;font-size:medium;line-height:154.99999523%;font-family:Superclarendon;-inkscape-font-specification:'Superclarendon Heavy';letter-spacing:1.73908818px;word-spacing:0px;fill:#000000;fill-opacity:1;stroke:none;stroke-width:1px;stroke-linecap:butt;stroke-linejoin:miter;stroke-opacity:1"
       d="m 9.642201,1245.5381 q 0.17537,4.7351 1.519875,6.781 1.344505,1.9876 4.325799,1.9876 2.221356,0 4.150429,-1.2861 1.929072,-1.3445 2.51364,-3.7997 l 6.196414,0.4092 q -0.35074,2.1045 -1.402962,4.1505 -1.052221,1.9875 -2.805923,3.5658 -1.753702,1.5199 -4.267342,2.4552 -2.455183,0.9938 -5.670304,0.9938 -3.682775,0 -6.956352,-0.8184 -3.215121,-0.76 -5.670304,-2.5721 -2.396727,-1.8706 -3.799688,-4.9104 -1.344506,-3.0982 -1.344506,-7.5994 0,-7.6578 4.325799,-11.8082 4.325799,-4.2089 12.5682,-4.2089 4.150428,0 7.131722,0.9353 3.039751,0.8768 5.02728,2.8644 1.987529,1.9875 2.922837,5.2026 0.935308,3.1567 0.935308,7.6578 l -19.699922,0 z m 9.060795,-4.9688 q 0,-1.0522 -0.233827,-2.2213 -0.17537,-1.2276 -0.701481,-2.2214 -0.526111,-1.0522 -1.402962,-1.6952 -0.876851,-0.7015 -2.162899,-0.7015 -3.916602,0 -4.442712,6.8394 l 8.943881,0 z" />
    <path
       inkscape:connector-curvature="0"
       id="path4209"
       style="font-style:normal;font-variant:normal;font-weight:900;font-stretch:normal;font-size:medium;line-height:154.99999523%;font-family:Superclarendon;-inkscape-font-specification:'Superclarendon Heavy';letter-spacing:1.73908818px;word-spacing:0px;fill:#000000;fill-opacity:1;stroke:none;stroke-width:1px;stroke-linecap:butt;stroke-linejoin:miter;stroke-opacity:1"
       d="m 93.92497,1236.0682 q -3.273577,0 -3.975058,1.9875 l -7.307093,21.7459 -12.568199,0 -6.196415,-14.6142 -6.488698,14.6142 -12.509743,0 -6.722525,-21.6875 q -0.818394,-2.0459 -3.799688,-2.0459 l 0,-6.0211 19.758378,0 0,6.0211 -2.045985,0 q -0.818395,0 -1.227592,0.4676 -0.35074,0.4092 -0.35074,1.0522 0,0.2923 0.17537,0.5261 l 4.384255,14.6142 6.547155,-14.1465 q 0.233827,-0.5261 0.233827,-1.286 0,-0.6431 -0.52611,-0.9354 -0.526111,-0.2922 -1.344505,-0.2922 l -1.753703,0 0,-6.0211 18.589244,0 0,6.0211 -1.987529,0 q -1.402962,0 -1.402962,1.1691 0,0.4677 0.17537,0.8768 l 5.962588,14.6142 5.02728,-14.1465 q 0.17537,-0.5846 0.17537,-1.1107 -0.05846,-0.7015 -0.643024,-1.0522 -0.526111,-0.3507 -1.402962,-0.3507 l -2.045986,0 0,-6.0211 13.26968,0 0,6.0211 z" />
    <path
       inkscape:connector-curvature="0"
       id="path4211"
       style="font-style:normal;font-variant:normal;font-weight:900;font-stretch:normal;font-size:medium;line-height:154.99999523%;font-family:Superclarendon;-inkscape-font-specification:'Superclarendon Heavy';letter-spacing:1.73908818px;word-spacing:0px;fill:#000000;fill-opacity:1;stroke:none;stroke-width:1px;stroke-linecap:butt;stroke-linejoin:miter;stroke-opacity:1"
       d="m 128.78892,1239.8094 -6.02104,0.3507 q -0.4092,-1.4029 -1.28605,-2.3382 -0.87685,-0.9938 -2.04599,-1.5199 -1.11068,-0.5846 -2.51364,-0.8184 -1.3445,-0.2338 -2.74747,-0.2338 -3.62431,0 -3.62431,1.8706 0,1.0522 1.05222,1.6368 1.11068,0.5845 2.92284,1.0522 1.81215,0.4092 4.15042,0.8184 2.39673,0.4092 4.96883,1.1691 3.68277,1.1107 5.43647,3.0982 1.75371,1.9876 1.75371,5.495 0,2.5721 -1.05223,4.4427 -1.05222,1.8121 -2.68901,2.9813 -1.57833,1.1691 -3.56586,1.7537 -1.98753,0.5845 -3.9166,0.5845 -3.15666,0 -5.14419,-0.2922 -1.92907,-0.2923 -3.15667,-0.5846 -1.22759,-0.3508 -2.04598,-0.643 -0.75994,-0.2923 -1.51988,-0.2923 -0.52611,0 -0.87685,0.3507 -0.29228,0.2923 -0.58457,1.1107 l -5.96258,0 0,-9.9961 5.96258,-0.2338 q 0.35075,1.2276 1.46142,2.1044 1.11068,0.8769 2.63056,1.4614 1.57833,0.5846 3.33203,0.8769 1.81216,0.2923 3.50741,0.2923 3.21512,0 3.21512,-2.1629 0,-1.0523 -0.93531,-1.5784 -0.87685,-0.5845 -2.45518,-0.8768 -1.51988,-0.3508 -3.62432,-0.643 -2.10445,-0.2923 -4.44272,-0.8769 -2.57209,-0.643 -4.26734,-1.5199 -1.63679,-0.9353 -2.63055,-2.1044 -0.99377,-1.1691 -1.40296,-2.6306 -0.4092,-1.4614 -0.4092,-3.2151 0,-4.092 2.80592,-6.6641 2.80593,-2.572 7.89167,-2.572 2.27981,0 3.97505,0.3507 1.69525,0.2923 2.86438,0.643 1.2276,0.3508 2.04599,0.7015 0.87685,0.2923 1.51987,0.2923 0.99377,0 1.98753,-1.403 l 5.43648,0 0,9.7623 z" />
    <path
       inkscape:connector-curvature="0"
       id="path4213"
       style="font-style:normal;font-variant:normal;font-weight:900;font-stretch:normal;font-size:medium;line-height:154.99999523%;font-family:Superclarendon;-inkscape-font-specification:'Superclarendon Heavy';letter-spacing:1.73908818px;word-spacing:0px;fill:#66b032;fill-opacity:1;stroke:none;stroke-width:1px;stroke-linecap:butt;stroke-linejoin:miter;stroke-opacity:1"
       d="m 175.9498,1228.878 q 2.74747,0 5.55339,0.5261 2.86439,0.4676 5.1442,1.6952 2.33827,1.1692 3.79969,3.2736 1.46141,2.046 1.46141,5.2027 l 0,12.7435 q 0,1.2861 0.4092,1.8122 0.4092,0.5261 1.22759,0.5261 0.8184,0 1.22759,-0.643 0.4092,-0.7015 0.4092,-1.6953 l 0,-2.5136 4.03352,0 0,1.1107 q 0,2.9813 -0.93531,4.7934 -0.93531,1.8122 -2.39673,2.806 -1.46142,0.9937 -3.21512,1.3445 -1.69524,0.3507 -3.27358,0.3507 -4.03351,0 -6.0795,-1.5199 -2.04598,-1.5783 -2.86438,-4.3842 -0.52611,1.2276 -1.40296,2.3967 -0.87685,1.1691 -2.22135,2.1044 -1.28605,0.8769 -3.15667,1.403 -1.81216,0.5846 -4.26734,0.5846 -5.37802,0 -7.8332,-2.2798 -2.45518,-2.2799 -2.45518,-5.9042 0,-2.1044 0.9353,-3.975 0.99377,-1.9291 2.9813,-2.9813 1.28605,-0.7015 3.03975,-1.1107 1.81216,-0.4677 3.9166,-0.8184 2.1629,-0.4092 4.55962,-0.9353 2.39673,-0.5261 4.91037,-1.403 l 0,-1.8121 q 0,-1.0523 -0.35074,-2.1045 -0.29229,-1.1107 -0.99377,-1.929 -0.70148,-0.8769 -1.81216,-1.403 -1.11067,-0.5261 -2.63055,-0.5261 -1.81216,0 -3.15666,0.2923 -1.28605,0.2338 -2.63055,1.0522 1.51987,0.1169 2.57209,0.8184 1.11068,0.643 1.11068,2.3382 0,1.9876 -1.22759,3.1567 -1.22759,1.1691 -4.03352,1.1691 -2.80592,0 -4.09197,-1.1691 -1.22759,-1.2276 -1.22759,-3.8581 0,-1.8122 0.99376,-3.3321 1.05223,-1.5783 2.9813,-2.689 1.92907,-1.1691 4.67654,-1.8121 2.80592,-0.7015 6.31332,-0.7015 z m 3.56587,15.0818 q -1.81216,1.2861 -3.3905,2.046 -1.51987,0.7015 -2.689,1.3445 -1.11068,0.643 -1.75371,1.5199 -0.64302,0.8184 -0.64302,2.2798 0,0.9938 0.58457,1.8122 0.64302,0.7599 2.27981,0.7599 1.7537,0 3.27358,-1.1107 1.51987,-1.1107 2.33827,-3.1567 l 0,-5.4949 z" />
    <path
       inkscape:connector-curvature="0"
       id="path4215"
       style="font-style:normal;font-variant:normal;font-weight:900;font-stretch:normal;font-size:medium;line-height:154.99999523%;font-family:Superclarendon;-inkscape-font-specification:'Superclarendon Heavy';letter-spacing:1.73908818px;word-spacing:0px;fill:#000000;fill-opacity:1;stroke:none;stroke-width:1px;stroke-linecap:butt;stroke-linejoin:miter;stroke-opacity:1"
       d="m 222.22746,1251.3254 q -5.67031,0 -8.6516,-1.1107 -0.0585,0.059 -0.0585,0.5261 0,0.2338 0.23383,0.643 0.29228,0.4092 1.46142,0.9353 1.16913,0.4677 3.62431,0.9938 2.45519,0.4677 6.83944,0.8769 4.79346,0.4676 7.95012,1.0522 3.21512,0.5261 5.02728,1.5783 1.87062,1.0522 2.63055,2.7475 0.75994,1.6952 0.75994,4.5011 0,2.806 -1.22759,4.6181 -1.16914,1.8122 -3.68278,2.9229 -2.45518,1.1106 -6.19641,1.5198 -3.74123,0.4677 -8.82697,0.4677 -5.2611,0 -8.59314,-0.3508 -3.33203,-0.3507 -5.26111,-1.1691 -1.92907,-0.7599 -2.63055,-1.9875 -0.70148,-1.1691 -0.70148,-2.8644 0,-2.7475 2.39673,-4.092 2.39672,-1.286 5.90413,-1.286 l 2.04598,1.8706 q -1.51987,0.4677 -2.10444,1.1107 -0.58457,0.643 -0.58457,1.5199 0,3.2735 9.58691,3.2735 3.33203,0 5.43648,-0.1753 2.1629,-0.117 3.33203,-0.4677 1.22759,-0.2923 1.63679,-0.8184 0.46765,-0.5261 0.46765,-1.3445 0,-0.8184 -0.23382,-1.3445 -0.23383,-0.5261 -1.28605,-0.9938 -1.05222,-0.4092 -3.27358,-0.7599 -2.1629,-0.3507 -6.02104,-0.8184 -2.5721,-0.2923 -5.08574,-0.7599 -2.51364,-0.4677 -4.55963,-1.403 -2.04598,-0.8769 -3.33203,-2.3967 -1.22759,-1.5784 -1.22759,-4.0335 0,-1.6368 0.58457,-3.0398 0.58456,-1.4614 2.04598,-2.6305 -1.69524,-1.3445 -2.39673,-3.1567 -0.70148,-1.8706 -0.70148,-4.5012 0,-2.9228 1.05223,-4.9688 1.05222,-2.1044 2.98129,-3.3905 1.92907,-1.3445 4.61808,-1.9291 2.68901,-0.643 6.02105,-0.643 2.98129,0 5.49493,0.4092 2.5721,0.3507 4.55963,1.2861 1.46141,-1.3445 3.0982,-1.8122 1.63679,-0.4676 3.50741,-0.4676 1.28605,0 2.80592,0.4091 1.57833,0.4092 2.86438,1.3446 1.28605,0.8768 2.1629,2.3967 0.87685,1.5199 0.87685,3.6828 0,2.3382 -1.22759,3.5658 -1.16913,1.1691 -3.09821,1.1691 -2.1629,0 -3.33203,-1.0522 -1.11068,-1.1106 -1.11068,-2.6305 0,-1.6953 0.99376,-2.5721 0.99377,-0.9353 2.63056,-0.9938 -0.4092,-0.9353 -1.40296,-1.4029 -0.99377,-0.4677 -2.1629,-0.4677 -0.75994,0 -1.57833,0.2923 -0.75994,0.2338 -1.75371,0.9937 1.98753,2.3383 1.98753,6.3134 0,3.3905 -1.16913,5.4949 -1.11068,2.1045 -3.15667,3.332 -2.04598,1.1692 -4.85191,1.5784 -2.80592,0.4092 -6.13795,0.4092 z m 3.9166,-10.6976 q 0,-3.6828 -0.99377,-5.0857 -0.93531,-1.4615 -2.86438,-1.4615 -2.33827,0 -3.15666,1.4615 -0.75994,1.4614 -0.75994,5.1441 0,3.6828 0.8184,5.2027 0.87685,1.5199 3.0982,1.5199 2.10445,0 2.9813,-1.5199 0.87685,-1.5783 0.87685,-5.2611 z" />
    <path
       inkscape:connector-curvature="0"
       id="path4217"
       style="font-style:normal;font-variant:normal;font-weight:900;font-stretch:normal;font-size:medium;line-height:154.99999523%;font-family:Superclarendon;-inkscape-font-specification:'Superclarendon Heavy';letter-spacing:1.73908818px;word-spacing:0px;fill:#000000;fill-opacity:1;stroke:none;stroke-width:1px;stroke-linecap:butt;stroke-linejoin:miter;stroke-opacity:1"
       d="m 266.80528,1245.5381 q 0.17538,4.7351 1.51988,6.781 1.34451,1.9876 4.3258,1.9876 2.22136,0 4.15043,-1.2861 1.92907,-1.3445 2.51364,-3.7997 l 6.19641,0.4092 q -0.35074,2.1045 -1.40296,4.1505 -1.05222,1.9875 -2.80592,3.5658 -1.75371,1.5199 -4.26735,2.4552 -2.45518,0.9938 -5.6703,0.9938 -3.68277,0 -6.95635,-0.8184 -3.21512,-0.76 -5.67031,-2.5721 -2.39672,-1.8706 -3.79968,-4.9104 -1.34451,-3.0982 -1.34451,-7.5994 0,-7.6578 4.3258,-11.8082 4.3258,-4.2089 12.5682,-4.2089 4.15043,0 7.13172,0.9353 3.03975,0.8768 5.02728,2.8644 1.98753,1.9875 2.92284,5.2026 0.93531,3.1567 0.93531,7.6578 l -19.69993,0 z m 9.0608,-4.9688 q 0,-1.0522 -0.23383,-2.2213 -0.17537,-1.2276 -0.70148,-2.2214 -0.52611,-1.0522 -1.40296,-1.6952 -0.87685,-0.7015 -2.1629,-0.7015 -3.9166,0 -4.44271,6.8394 l 8.94388,0 z" />
    <path
       inkscape:connector-curvature="0"
       id="path4219"
       style="font-style:normal;font-variant:normal;font-weight:900;font-stretch:normal;font-size:medium;line-height:154.99999523%;font-family:Superclarendon;-inkscape-font-specification:'Superclarendon Heavy';letter-spacing:1.73908818px;word-spacing:0px;fill:#000000;fill-opacity:1;stroke:none;stroke-width:1px;stroke-linecap:butt;stroke-linejoin:miter;stroke-opacity:1"
       d="m 316.80221,1253.7221 q 2.68902,0 2.68902,-2.6306 l 0,-5.6118 q 0,-7.3071 -3.27358,-7.3071 -3.9166,0 -5.20265,6.6641 l 0,6.2548 q 0,2.6306 2.63055,2.6306 l 0,6.0795 -20.86906,0 0,-6.0795 q 4.91037,0 4.91037,-2.6306 l 0,-12.3928 q 0,-2.6305 -4.85191,-2.6305 l 0,-6.0211 18.18005,0 0,5.9626 q 3.85814,-6.5471 12.33437,-6.5471 9.46999,0 9.46999,8.71 l 0,12.9189 q 0,2.6306 4.96883,2.6306 l 0,6.0795 -20.98598,0 0,-6.0795 0,0 z" />
    <path
       inkscape:connector-curvature="0"
       id="path4221"
       style="font-style:normal;font-variant:normal;font-weight:900;font-stretch:normal;font-size:medium;line-height:154.99999523%;font-family:Superclarendon;-inkscape-font-specification:'Superclarendon Heavy';letter-spacing:1.73908818px;word-spacing:0px;fill:#000000;fill-opacity:1;stroke:none;stroke-width:1px;stroke-linecap:butt;stroke-linejoin:miter;stroke-opacity:1"
       d="m 369.67361,1235.659 q -0.64303,-1.0523 -2.04599,-1.4615 -1.40296,-0.4676 -3.09821,-0.4676 -1.40296,0 -2.68901,0.7015 -1.28604,0.643 -2.27981,1.929 -0.99376,1.2861 -1.57833,3.1567 -0.58457,1.8122 -0.58457,4.1504 0,5.495 1.46142,8.0671 1.46142,2.5721 5.26111,2.5721 2.22135,0 3.85814,-1.2276 1.69525,-1.2276 1.98753,-3.8582 l 6.19642,0.4092 q -0.35074,2.046 -1.34451,4.0335 -0.93531,1.9876 -2.5721,3.5659 -1.63678,1.5783 -4.09197,2.5721 -2.39672,0.9938 -5.61184,0.9938 -4.09198,0 -7.48247,-0.8769 -3.33203,-0.8184 -5.78721,-2.689 -2.39673,-1.9291 -3.74124,-4.9104 -1.3445,-2.9813 -1.3445,-7.2486 0,-3.2151 0.99376,-6.138 0.99377,-2.9813 3.03975,-5.2026 2.10445,-2.2214 5.31957,-3.5074 3.27357,-1.3445 7.77474,-1.3445 3.09821,0 5.78722,0.5261 2.68901,0.4676 4.61808,1.6368 1.98753,1.1691 3.09821,3.0397 1.11068,1.8706 1.11068,4.6766 0,2.2213 -1.28605,3.8581 -1.22759,1.6368 -4.03351,1.6368 -2.51364,0 -3.74124,-1.2276 -1.22759,-1.286 -1.22759,-3.0397 0,-1.5199 1.05222,-2.8644 1.11068,-1.3445 2.9813,-1.4614 z" />
    <path
       inkscape:connector-curvature="0"
       id="path4223"
       style="font-style:normal;font-variant:normal;font-weight:900;font-stretch:normal;font-size:medium;line-height:154.99999523%;font-family:Superclarendon;-inkscape-font-specification:'Superclarendon Heavy';letter-spacing:1.73908818px;word-spacing:0px;fill:#000000;fill-opacity:1;stroke:none;stroke-width:1px;stroke-linecap:butt;stroke-linejoin:miter;stroke-opacity:1"
       d="m 397.27525,1237.3542 q 0,0.4092 0.17538,0.7599 l 4.96882,13.5036 5.08573,-13.0359 q 0.23383,-0.4677 0.23383,-1.1107 0,-1.4029 -2.04598,-1.4029 l -0.64303,0 0,-6.0211 12.33437,0 0,6.0211 q -3.56586,0 -4.3258,1.9875 l -9.46999,23.9673 q -0.99376,2.5721 -2.1629,4.6765 -1.11067,2.1629 -2.63055,3.6828 -1.46142,1.5198 -3.44895,2.3382 -1.98753,0.8769 -4.79345,0.8769 -2.10444,0 -3.9166,-0.5261 -1.7537,-0.5261 -3.09821,-1.5784 -1.3445,-1.0522 -2.10444,-2.689 -0.75994,-1.6368 -0.75994,-3.8581 0,-2.4552 1.40296,-3.9166 1.46142,-1.403 4.09197,-1.403 2.1629,0 3.44895,0.9353 1.28605,0.9938 1.28605,2.7475 0,1.5199 -0.99376,2.5721 -0.99377,1.0522 -2.86438,1.1691 0.52611,0.8184 1.22759,1.2276 0.75993,0.4677 2.63055,0.4677 3.15666,0 5.37802,-3.2736 l -11.57443,-27.3578 q -0.46766,-0.9937 -1.63679,-1.5198 -1.11068,-0.5261 -2.39673,-0.5261 l 0,-6.0211 19.0569,0 0,6.0211 -0.93531,0 q -1.51988,0 -1.51988,1.286 z" />
    <path
       style="fill:#fd5308;fill-rule:evenodd;stroke:#fd5308;stroke-width:5;stroke-linecap:round;stroke-linejoin:round;stroke-miterlimit:4;stroke-dasharray:none;stroke-opacity:1;fill-opacity:1"
       d="m 312.78073,1067.7246 -643.09209,0"
       id="path4289"
       inkscape:connector-curvature="0" />
    <path
       inkscape:connector-curvature="0"
       id="path4295"
       d="m 416.97433,1362.7141 -746.88074,0"
       style="fill:none;fill-rule:evenodd;stroke:#fd5308;stroke-width:5;stroke-linecap:round;stroke-linejoin:round;stroke-miterlimit:4;stroke-dasharray:none;stroke-opacity:1" />
    <path
       style="fill:none;fill-rule:evenodd;stroke:#fd5308;stroke-width:5;stroke-linecap:round;stroke-linejoin:round;stroke-miterlimit:4;stroke-dasharray:none;stroke-opacity:1"
       d="m -330.3569,1273.5974 0,-147.8371"
       id="path4301"
       inkscape:connector-curvature="0" />
    <text
       xml:space="preserve"
       style="font-style:normal;font-variant:normal;font-weight:normal;font-stretch:normal;font-size:20.08610725px;line-height:125%;font-family:Superclarendon;-inkscape-font-specification:Superclarendon;letter-spacing:0px;word-spacing:0px;fill:#4d4d4d;fill-opacity:1;stroke:none;stroke-width:1px;stroke-linecap:butt;stroke-linejoin:miter;stroke-opacity:1;"
       x="-250.62971"
       y="1340.3542"
       id="text4303"
       sodipodi:linespacing="125%"><tspan
         sodipodi:role="line"
         id="tspan4305"
         x="-250.62971"
         y="1340.3542">https://facebook.tracking.exposed</tspan></text>
    <path
       style="fill:none;fill-rule:evenodd;stroke:#000000;stroke-width:7.19999981;stroke-linecap:square;stroke-linejoin:round;stroke-miterlimit:4;stroke-dasharray:none;stroke-opacity:1"
       d="m -249.84139,1244.6321 166.576243,0"
       id="path4311"
       inkscape:connector-curvature="0" />
  </g>
  <style
     id="style5239"
     type="text/css">
	.st0{fill:#1DA1F2;}
</style>
</svg>
